%TF.GenerationSoftware,KiCad,Pcbnew,8.0.6*%
%TF.CreationDate,2025-08-25T15:55:58+12:00*%
%TF.ProjectId,ByteBoyV2,42797465-426f-4795-9632-2e6b69636164,v2*%
%TF.SameCoordinates,Original*%
%TF.FileFunction,Copper,L1,Top*%
%TF.FilePolarity,Positive*%
%FSLAX46Y46*%
G04 Gerber Fmt 4.6, Leading zero omitted, Abs format (unit mm)*
G04 Created by KiCad (PCBNEW 8.0.6) date 2025-08-25 15:55:58*
%MOMM*%
%LPD*%
G01*
G04 APERTURE LIST*
%TA.AperFunction,ComponentPad*%
%ADD10O,1.200000X2.000000*%
%TD*%
%TA.AperFunction,ComponentPad*%
%ADD11R,1.200000X2.000000*%
%TD*%
%TA.AperFunction,SMDPad,CuDef*%
%ADD12R,2.000000X1.900000*%
%TD*%
%TA.AperFunction,ComponentPad*%
%ADD13C,3.320000*%
%TD*%
%TA.AperFunction,ComponentPad*%
%ADD14O,1.600000X1.600000*%
%TD*%
%TA.AperFunction,ComponentPad*%
%ADD15C,1.600000*%
%TD*%
%TA.AperFunction,ComponentPad*%
%ADD16R,1.930400X1.930400*%
%TD*%
%TA.AperFunction,ComponentPad*%
%ADD17C,1.930400*%
%TD*%
%TA.AperFunction,ComponentPad*%
%ADD18C,3.200000*%
%TD*%
%TA.AperFunction,ComponentPad*%
%ADD19R,1.400000X1.400000*%
%TD*%
%TA.AperFunction,ComponentPad*%
%ADD20C,1.400000*%
%TD*%
%TA.AperFunction,ViaPad*%
%ADD21C,1.000000*%
%TD*%
%TA.AperFunction,Conductor*%
%ADD22C,0.400000*%
%TD*%
%TA.AperFunction,Conductor*%
%ADD23C,1.000000*%
%TD*%
G04 APERTURE END LIST*
D10*
%TO.P,U2,38,GND*%
%TO.N,GND*%
X85596560Y-75300000D03*
%TO.P,U2,37,GPIO23*%
%TO.N,MOSI*%
X88136560Y-75300000D03*
%TO.P,U2,36,GPIO22*%
%TO.N,D{slash}C*%
X90676560Y-75300000D03*
%TO.P,U2,35,U0TXD/GPIO1*%
%TO.N,unconnected-(U2-U0TXD{slash}GPIO1-Pad35)*%
X93216560Y-75300000D03*
%TO.P,U2,34,U0RXD/GPIO3*%
%TO.N,unconnected-(U2-U0RXD{slash}GPIO3-Pad34)*%
X95756560Y-75300000D03*
%TO.P,U2,33,GPIO21*%
%TO.N,SD_SELECT*%
X98296560Y-75300000D03*
%TO.P,U2,32,GND*%
%TO.N,GND*%
X100836560Y-75300000D03*
%TO.P,U2,31,GPIO19*%
%TO.N,MISO*%
X103376560Y-75300000D03*
%TO.P,U2,30,GPIO18*%
%TO.N,SCK*%
X105916560Y-75300000D03*
%TO.P,U2,29,GPIO5*%
%TO.N,LED4*%
X108456560Y-75300000D03*
%TO.P,U2,28,GPIO17*%
%TO.N,LED6*%
X110996560Y-75300000D03*
%TO.P,U2,27,GPIO16*%
%TO.N,LED5*%
X113536560Y-75300000D03*
%TO.P,U2,26,ADC2_CH0/GPIO4*%
%TO.N,DISPLAY_SELECT*%
X116076560Y-75300000D03*
%TO.P,U2,25,GPIO0/BOOT/ADC2_CH1*%
%TO.N,unconnected-(U2-GPIO0{slash}BOOT{slash}ADC2_CH1-Pad25)*%
X118616560Y-75300000D03*
%TO.P,U2,24,ADC2_CH2/GPIO2*%
%TO.N,unconnected-(U2-ADC2_CH2{slash}GPIO2-Pad24)*%
X121156560Y-75300000D03*
%TO.P,U2,23,MTDO/GPIO15/ADC2_CH3*%
%TO.N,unconnected-(U2-MTDO{slash}GPIO15{slash}ADC2_CH3-Pad23)*%
X123696560Y-75300000D03*
%TO.P,U2,22,SD_DATA1/GPIO8*%
%TO.N,unconnected-(U2-SD_DATA1{slash}GPIO8-Pad22)*%
X126236560Y-75300000D03*
%TO.P,U2,21,SD_DATA0/GPIO7*%
%TO.N,unconnected-(U2-SD_DATA0{slash}GPIO7-Pad21)*%
X128773840Y-75303680D03*
%TO.P,U2,20,SD_CLK/GPIO6*%
%TO.N,unconnected-(U2-SD_CLK{slash}GPIO6-Pad20)*%
X131313840Y-75303680D03*
%TO.P,U2,19,5V*%
%TO.N,+5V*%
X131316560Y-100700000D03*
%TO.P,U2,18,CMD*%
%TO.N,unconnected-(U2-CMD-Pad18)*%
X128776560Y-100700000D03*
%TO.P,U2,17,SD_DATA3/GPIO10*%
%TO.N,unconnected-(U2-SD_DATA3{slash}GPIO10-Pad17)*%
X126236560Y-100700000D03*
%TO.P,U2,16,SD_DATA2/GPIO9*%
%TO.N,unconnected-(U2-SD_DATA2{slash}GPIO9-Pad16)*%
X123696560Y-100700000D03*
%TO.P,U2,15,MTCK/GPIO13/ADC2_CH4*%
%TO.N,LED2*%
X121156560Y-100700000D03*
%TO.P,U2,14,GND*%
%TO.N,GND*%
X118616560Y-100700000D03*
%TO.P,U2,13,MTDI/GPIO12/ADC2_CH5*%
%TO.N,LED1*%
X116076560Y-100700000D03*
%TO.P,U2,12,MTMS/GPIO14/ADC2_CH6*%
%TO.N,SW4*%
X113536560Y-100700000D03*
%TO.P,U2,11,ADC2_CH7/GPIO27*%
%TO.N,SW3*%
X110996560Y-100700000D03*
%TO.P,U2,10,DAC_2/ADC2_CH9/GPIO26*%
%TO.N,SW2*%
X108456560Y-100700000D03*
%TO.P,U2,9,DAC_1/ADC2_CH8/GPIO25*%
%TO.N,SW1*%
X105916560Y-100700000D03*
%TO.P,U2,8,32K_XN/GPIO33/ADC1_CH5*%
%TO.N,LEFT*%
X103376560Y-100700000D03*
%TO.P,U2,7,32K_XP/GPIO32/ADC1_CH4*%
%TO.N,LED3*%
X100836560Y-100700000D03*
%TO.P,U2,6,VDET_2/GPIO35/ADC1_CH7*%
%TO.N,RIGHT*%
X98296560Y-100700000D03*
%TO.P,U2,5,VDET_1/GPIO34/ADC1_CH6*%
%TO.N,UP*%
X95756560Y-100700000D03*
%TO.P,U2,4,SENSOR_VN/GPIO39/ADC1_CH3*%
%TO.N,PUSH*%
X93216560Y-100700000D03*
%TO.P,U2,3,SENSOR_VP/GPIO36/ADC1_CH0*%
%TO.N,DOWN*%
X90676560Y-100700000D03*
%TO.P,U2,2,CHIP_PU*%
%TO.N,unconnected-(U2-CHIP_PU-Pad2)*%
X88136560Y-100700000D03*
D11*
%TO.P,U2,1,3V3*%
%TO.N,+3.3V*%
X85596560Y-100700000D03*
%TD*%
D12*
%TO.P,Joystick,1*%
%TO.N,GND*%
X155000000Y-112000000D03*
%TO.P,Joystick,2*%
%TO.N,LEFT*%
X155000000Y-108000000D03*
%TO.P,Joystick,3*%
%TO.N,PUSH*%
X155000000Y-104000000D03*
%TO.P,Joystick,4*%
%TO.N,UP*%
X140000000Y-112000000D03*
%TO.P,Joystick,5*%
%TO.N,RIGHT*%
X140000000Y-108000000D03*
%TO.P,Joystick,6*%
%TO.N,DOWN*%
X140000000Y-104000000D03*
%TD*%
D13*
%TO.P,Select_Button,1*%
%TO.N,GND*%
X207000000Y-74500000D03*
%TO.P,Select_Button,2*%
%TO.N,Net-(D9-PadC)*%
X211000000Y-74500000D03*
%TD*%
%TO.P,Start_Button,1*%
%TO.N,GND*%
X207000000Y-60500000D03*
%TO.P,Start_Button,2*%
%TO.N,Net-(D8-PadC)*%
X211000000Y-60500000D03*
%TD*%
%TO.P,B_Button,1*%
%TO.N,GND*%
X184500000Y-110500000D03*
%TO.P,B_Button,2*%
%TO.N,Net-(D7-PadC)*%
X188500000Y-110500000D03*
%TD*%
%TO.P,A_Button,1*%
%TO.N,GND*%
X196500000Y-103500000D03*
%TO.P,A_Button,2*%
%TO.N,Net-(D10-PadC)*%
X200500000Y-103500000D03*
%TD*%
D14*
%TO.P,R14,2*%
%TO.N,Net-(D6-PadA)*%
X124310000Y-67500000D03*
D15*
%TO.P,R14,1*%
%TO.N,LED6*%
X116690000Y-67500000D03*
%TD*%
%TO.P,R13,1*%
%TO.N,Net-(D9-PadC)*%
X212810000Y-87000000D03*
D14*
%TO.P,R13,2*%
%TO.N,SW3*%
X205190000Y-87000000D03*
%TD*%
D15*
%TO.P,R12,1*%
%TO.N,Net-(D7-PadC)*%
X182060000Y-101500000D03*
D14*
%TO.P,R12,2*%
%TO.N,SW1*%
X174440000Y-101500000D03*
%TD*%
D15*
%TO.P,R11,1*%
%TO.N,Net-(D8-PadC)*%
X222810000Y-67250000D03*
D14*
%TO.P,R11,2*%
%TO.N,SW2*%
X215190000Y-67250000D03*
%TD*%
D15*
%TO.P,R10,1*%
%TO.N,Net-(D10-PadC)*%
X185560000Y-95500000D03*
D14*
%TO.P,R10,2*%
%TO.N,SW4*%
X177940000Y-95500000D03*
%TD*%
D15*
%TO.P,R9,1*%
%TO.N,LED5*%
X111810000Y-67500000D03*
D14*
%TO.P,R9,2*%
%TO.N,Net-(D5-PadA)*%
X104190000Y-67500000D03*
%TD*%
D15*
%TO.P,R8,1*%
%TO.N,LED4*%
X159810000Y-121000000D03*
D14*
%TO.P,R8,2*%
%TO.N,Net-(D4-PadA)*%
X152190000Y-121000000D03*
%TD*%
D15*
%TO.P,R7,1*%
%TO.N,LED3*%
X160810000Y-96000000D03*
D14*
%TO.P,R7,2*%
%TO.N,Net-(D2-PadA)*%
X153190000Y-96000000D03*
%TD*%
D15*
%TO.P,R6,1*%
%TO.N,LED2*%
X120190000Y-106000000D03*
D14*
%TO.P,R6,2*%
%TO.N,Net-(D3-PadA)*%
X127810000Y-106000000D03*
%TD*%
%TO.P,R5,2*%
%TO.N,Net-(D1-PadA)*%
X168500000Y-105810000D03*
D15*
%TO.P,R5,1*%
%TO.N,LED1*%
X168500000Y-98190000D03*
%TD*%
%TO.P,R4,1*%
%TO.N,Net-(D9-PadA)*%
X232000000Y-80690000D03*
D14*
%TO.P,R4,2*%
%TO.N,+3.3V*%
X232000000Y-88310000D03*
%TD*%
D15*
%TO.P,R3,1*%
%TO.N,Net-(D10-PadA)*%
X217940000Y-97750000D03*
D14*
%TO.P,R3,2*%
%TO.N,+3.3V*%
X225560000Y-97750000D03*
%TD*%
D15*
%TO.P,R2,1*%
%TO.N,Net-(D8-PadA)*%
X226190000Y-67250000D03*
D14*
%TO.P,R2,2*%
%TO.N,+3.3V*%
X233810000Y-67250000D03*
%TD*%
D15*
%TO.P,R1,1*%
%TO.N,Net-(D7-PadA)*%
X170190000Y-122000000D03*
D14*
%TO.P,R1,2*%
%TO.N,+3.3V*%
X177810000Y-122000000D03*
%TD*%
D16*
%TO.P,Display,1,VIN*%
%TO.N,+5V*%
X142512500Y-59800000D03*
D17*
%TO.P,Display,2,3VO*%
%TO.N,unconnected-(DS1-3VO-Pad2)*%
X142512500Y-62340000D03*
%TO.P,Display,3,GND*%
%TO.N,GND*%
X142512500Y-64880000D03*
%TO.P,Display,4,SCK*%
%TO.N,SCK*%
X142512500Y-67420000D03*
%TO.P,Display,5,MISO*%
%TO.N,MISO*%
X142512500Y-69960000D03*
%TO.P,Display,6,MOSI*%
%TO.N,MOSI*%
X142512500Y-72500000D03*
%TO.P,Display,7,CS*%
%TO.N,DISPLAY_SELECT*%
X142512500Y-75040000D03*
%TO.P,Display,8,~{RST}*%
%TO.N,unconnected-(DS1-~{RST}-Pad8)*%
X142512500Y-77580000D03*
%TO.P,Display,9,D/C*%
%TO.N,D{slash}C*%
X142512500Y-80120000D03*
%TO.P,Display,10,SDCS*%
%TO.N,SD_SELECT*%
X142512500Y-82660000D03*
%TO.P,Display,11,BACKLIGHT*%
%TO.N,unconnected-(DS1-BACKLIGHT-Pad11)*%
X142512500Y-85200000D03*
D18*
%TO.P,Display,SH1*%
%TO.N,N/C*%
X196487500Y-57260000D03*
%TO.P,Display,SH2*%
X196487500Y-87740000D03*
%TD*%
D19*
%TO.P,D10,C*%
%TO.N,Net-(D10-PadC)*%
X207460000Y-103500000D03*
D20*
%TO.P,D10,A*%
%TO.N,Net-(D10-PadA)*%
X210000000Y-103500000D03*
%TD*%
D19*
%TO.P,D9,C*%
%TO.N,Net-(D9-PadC)*%
X219730000Y-74500000D03*
D20*
%TO.P,D9,A*%
%TO.N,Net-(D9-PadA)*%
X222270000Y-74500000D03*
%TD*%
D19*
%TO.P,D8,C*%
%TO.N,Net-(D8-PadC)*%
X221770000Y-60000000D03*
D20*
%TO.P,D8,A*%
%TO.N,Net-(D8-PadA)*%
X219230000Y-60000000D03*
%TD*%
D19*
%TO.P,D7,C*%
%TO.N,Net-(D7-PadC)*%
X175000000Y-111000000D03*
D20*
%TO.P,D7,A*%
%TO.N,Net-(D7-PadA)*%
X177540000Y-111000000D03*
%TD*%
D19*
%TO.P,D6,C*%
%TO.N,GND*%
X122960000Y-60500000D03*
D20*
%TO.P,D6,A*%
%TO.N,Net-(D6-PadA)*%
X125500000Y-60500000D03*
%TD*%
D19*
%TO.P,D5,C*%
%TO.N,GND*%
X97730000Y-68000000D03*
D20*
%TO.P,D5,A*%
%TO.N,Net-(D5-PadA)*%
X100270000Y-68000000D03*
%TD*%
D19*
%TO.P,D4,C*%
%TO.N,GND*%
X144460000Y-121000000D03*
D20*
%TO.P,D4,A*%
%TO.N,Net-(D4-PadA)*%
X147000000Y-121000000D03*
%TD*%
%TO.P,D3,A*%
%TO.N,Net-(D3-PadA)*%
X135270000Y-106000000D03*
D19*
%TO.P,D3,C*%
%TO.N,GND*%
X132730000Y-106000000D03*
%TD*%
%TO.P,D2,C*%
%TO.N,GND*%
X145730000Y-96000000D03*
D20*
%TO.P,D2,A*%
%TO.N,Net-(D2-PadA)*%
X148270000Y-96000000D03*
%TD*%
%TO.P,D1,A*%
%TO.N,Net-(D1-PadA)*%
X163000000Y-107000000D03*
D19*
%TO.P,D1,C*%
%TO.N,GND*%
X160460000Y-107000000D03*
%TD*%
D15*
%TO.P,C2,1*%
%TO.N,+5V*%
X131500000Y-62050000D03*
%TO.P,C2,2*%
%TO.N,GND*%
X136500000Y-62050000D03*
%TD*%
%TO.P,C1,1*%
%TO.N,+5V*%
X131500000Y-58000000D03*
%TO.P,C1,2*%
%TO.N,GND*%
X136500000Y-58000000D03*
%TD*%
D21*
%TO.N,LED4*%
X173000000Y-90000000D03*
X173000000Y-94500000D03*
%TO.N,SW1*%
X164000000Y-94750000D03*
X158828061Y-89578061D03*
X145250000Y-89750000D03*
X140500000Y-89750000D03*
%TO.N,SW2*%
X139500000Y-91000000D03*
X143794239Y-91044239D03*
%TO.N,SW3*%
X138500000Y-92250000D03*
X143065297Y-92238813D03*
%TO.N,SW4*%
X142750000Y-93500000D03*
X137580761Y-93580761D03*
%TO.N,SCK*%
X114500000Y-67200000D03*
X114500000Y-64500000D03*
%TO.N,LED3*%
X130000000Y-109500000D03*
X130000000Y-103800000D03*
%TO.N,DOWN*%
X148500000Y-105000000D03*
X148500000Y-107500000D03*
%TD*%
D22*
%TO.N,SW3*%
X205190000Y-90060000D02*
X205190000Y-87000000D01*
X203011187Y-92238813D02*
X205190000Y-90060000D01*
X143065297Y-92238813D02*
X203011187Y-92238813D01*
%TO.N,Net-(D9-PadC)*%
X212810000Y-76310000D02*
X212810000Y-87000000D01*
%TO.N,Net-(D8-PadC)*%
X216000000Y-63750000D02*
X216000000Y-58800000D01*
X216000000Y-58800000D02*
X212700000Y-58800000D01*
X219500000Y-67250000D02*
X216000000Y-63750000D01*
X222810000Y-67250000D02*
X219500000Y-67250000D01*
X216750000Y-58800000D02*
X216000000Y-58800000D01*
%TO.N,SW2*%
X211000000Y-67250000D02*
X215190000Y-67250000D01*
X189750000Y-88500000D02*
X211000000Y-67250000D01*
X187250000Y-91044239D02*
X189750000Y-88544239D01*
X143794239Y-91044239D02*
X187250000Y-91044239D01*
X189750000Y-88544239D02*
X189750000Y-88500000D01*
%TO.N,LED4*%
X106956560Y-76800000D02*
X108456560Y-75300000D01*
X102800000Y-76800000D02*
X106956560Y-76800000D01*
X102276560Y-76276560D02*
X102800000Y-76800000D01*
X102276560Y-73241295D02*
X102276560Y-76276560D01*
X120517855Y-55000000D02*
X102276560Y-73241295D01*
X173000000Y-82230386D02*
X145769614Y-55000000D01*
X173000000Y-90000000D02*
X173000000Y-82230386D01*
X145769614Y-55000000D02*
X120517855Y-55000000D01*
X175740000Y-105070000D02*
X175740000Y-97240000D01*
X175740000Y-97240000D02*
X173000000Y-94500000D01*
X169800000Y-111010000D02*
X175740000Y-105070000D01*
%TO.N,SW1*%
X164000000Y-94750000D02*
X164250000Y-95000000D01*
X158656122Y-89750000D02*
X158828061Y-89578061D01*
X145250000Y-89750000D02*
X158656122Y-89750000D01*
X164250000Y-95000000D02*
X167940000Y-95000000D01*
X116866560Y-89750000D02*
X140500000Y-89750000D01*
X167940000Y-95000000D02*
X174440000Y-101500000D01*
X105916560Y-100700000D02*
X116866560Y-89750000D01*
%TO.N,SW2*%
X118156560Y-91000000D02*
X139500000Y-91000000D01*
X108456560Y-100700000D02*
X118156560Y-91000000D01*
%TO.N,SW3*%
X119446560Y-92250000D02*
X138500000Y-92250000D01*
X110996560Y-100700000D02*
X119446560Y-92250000D01*
%TO.N,SW4*%
X142750000Y-93500000D02*
X175940000Y-93500000D01*
X175940000Y-93500000D02*
X177940000Y-95500000D01*
X120655799Y-93580761D02*
X137580761Y-93580761D01*
X113536560Y-100700000D02*
X120655799Y-93580761D01*
%TO.N,Net-(D8-PadC)*%
X220570000Y-58800000D02*
X216750000Y-58800000D01*
%TO.N,Net-(D9-PadC)*%
X212810000Y-76310000D02*
X211000000Y-74500000D01*
%TO.N,Net-(D10-PadC)*%
X192500000Y-95500000D02*
X185560000Y-95500000D01*
X200500000Y-103500000D02*
X192500000Y-95500000D01*
%TO.N,Net-(D7-PadC)*%
X182060000Y-108940000D02*
X182060000Y-101500000D01*
X180972649Y-110027351D02*
X182060000Y-108940000D01*
X180972649Y-110027351D02*
X183945298Y-113000000D01*
X180745298Y-109800000D02*
X180972649Y-110027351D01*
%TO.N,+3.3V*%
X232000000Y-88310000D02*
X233810000Y-86500000D01*
X233810000Y-86500000D02*
X233810000Y-67250000D01*
%TO.N,Net-(D8-PadC)*%
X212700000Y-58800000D02*
X211000000Y-60500000D01*
X221770000Y-60000000D02*
X220570000Y-58800000D01*
%TO.N,Net-(D8-PadA)*%
X219230000Y-60290000D02*
X219230000Y-60000000D01*
X226190000Y-67250000D02*
X219230000Y-60290000D01*
%TO.N,+3.3V*%
X178110000Y-122300000D02*
X177810000Y-122000000D01*
X203848478Y-122300000D02*
X178110000Y-122300000D01*
X225560000Y-100588478D02*
X203848478Y-122300000D01*
X225560000Y-97750000D02*
X225560000Y-100588478D01*
%TO.N,Net-(D10-PadA)*%
X215750000Y-97750000D02*
X210000000Y-103500000D01*
X217940000Y-97750000D02*
X215750000Y-97750000D01*
%TO.N,+3.3V*%
X232000000Y-91310000D02*
X225560000Y-97750000D01*
X232000000Y-88310000D02*
X232000000Y-91310000D01*
%TO.N,Net-(D9-PadC)*%
X219730000Y-74500000D02*
X211000000Y-74500000D01*
%TO.N,Net-(D9-PadA)*%
X228460000Y-80690000D02*
X232000000Y-80690000D01*
X222270000Y-74500000D02*
X228460000Y-80690000D01*
%TO.N,Net-(D10-PadC)*%
X200500000Y-103500000D02*
X207460000Y-103500000D01*
%TO.N,Net-(D7-PadC)*%
X183945298Y-113000000D02*
X186000000Y-113000000D01*
X186000000Y-113000000D02*
X188500000Y-110500000D01*
X175000000Y-111000000D02*
X176200000Y-109800000D01*
X176200000Y-109800000D02*
X180745298Y-109800000D01*
%TO.N,Net-(D7-PadA)*%
X177540000Y-114650000D02*
X170190000Y-122000000D01*
X177540000Y-111000000D02*
X177540000Y-114650000D01*
%TO.N,LED4*%
X159810000Y-121000000D02*
X169800000Y-111010000D01*
%TO.N,SCK*%
X106400000Y-75300000D02*
X105916560Y-75300000D01*
X114500000Y-67200000D02*
X106400000Y-75300000D01*
X117508378Y-64500000D02*
X114500000Y-64500000D01*
X121808378Y-68800000D02*
X117508378Y-64500000D01*
X141132500Y-68800000D02*
X121808378Y-68800000D01*
X142512500Y-67420000D02*
X141132500Y-68800000D01*
%TO.N,MISO*%
X111007805Y-65500000D02*
X103376560Y-73131245D01*
X117518428Y-65500000D02*
X111007805Y-65500000D01*
X121978428Y-69960000D02*
X117518428Y-65500000D01*
X103376560Y-73131245D02*
X103376560Y-75300000D01*
X142512500Y-69960000D02*
X121978428Y-69960000D01*
%TO.N,LED3*%
X109636560Y-109500000D02*
X100836560Y-100700000D01*
X130000000Y-109500000D02*
X109636560Y-109500000D01*
X159510000Y-94700000D02*
X139714214Y-94700000D01*
X139714214Y-94700000D02*
X130614214Y-103800000D01*
X160810000Y-96000000D02*
X159510000Y-94700000D01*
X130614214Y-103800000D02*
X130000000Y-103800000D01*
%TO.N,LED1*%
X136500000Y-106467057D02*
X136500000Y-103560050D01*
X135467057Y-107500000D02*
X136500000Y-106467057D01*
X119851522Y-107500000D02*
X135467057Y-107500000D01*
X136500000Y-103560050D02*
X141870050Y-98190000D01*
X116076560Y-103725038D02*
X119851522Y-107500000D01*
X141870050Y-98190000D02*
X168500000Y-98190000D01*
X116076560Y-100700000D02*
X116076560Y-103725038D01*
%TO.N,LEFT*%
X135457007Y-108500000D02*
X111176560Y-108500000D01*
X137500000Y-103550000D02*
X137500000Y-106457007D01*
X140000000Y-101050000D02*
X137500000Y-103550000D01*
X137500000Y-106457007D02*
X135457007Y-108500000D01*
X155050000Y-101050000D02*
X140000000Y-101050000D01*
X156500000Y-102500000D02*
X155050000Y-101050000D01*
X156500000Y-106500000D02*
X156500000Y-102500000D01*
X111176560Y-108500000D02*
X103376560Y-100700000D01*
X155000000Y-108000000D02*
X156500000Y-106500000D01*
%TO.N,RIGHT*%
X137000000Y-111000000D02*
X108596560Y-111000000D01*
X108596560Y-111000000D02*
X98296560Y-100700000D01*
X140000000Y-108000000D02*
X137000000Y-111000000D01*
%TO.N,+3.3V*%
X176510000Y-123300000D02*
X108196560Y-123300000D01*
X177810000Y-122000000D02*
X176510000Y-123300000D01*
X108196560Y-123300000D02*
X85596560Y-100700000D01*
%TO.N,Net-(D1-PadA)*%
X167310000Y-107000000D02*
X168500000Y-105810000D01*
X163000000Y-107000000D02*
X167310000Y-107000000D01*
D23*
%TO.N,GND*%
X160000000Y-107000000D02*
X155000000Y-112000000D01*
X160460000Y-107000000D02*
X160000000Y-107000000D01*
D22*
%TO.N,Net-(D5-PadA)*%
X100770000Y-67500000D02*
X100270000Y-68000000D01*
X104190000Y-67500000D02*
X100770000Y-67500000D01*
%TO.N,Net-(D6-PadA)*%
X124310000Y-61690000D02*
X125500000Y-60500000D01*
X124310000Y-67500000D02*
X124310000Y-61690000D01*
%TO.N,LED5*%
X117990000Y-70846560D02*
X113536560Y-75300000D01*
X117990000Y-66961522D02*
X117990000Y-70846560D01*
X117228478Y-66200000D02*
X117990000Y-66961522D01*
X113110000Y-66200000D02*
X117228478Y-66200000D01*
X111810000Y-67500000D02*
X113110000Y-66200000D01*
%TO.N,LED6*%
X116690000Y-69606560D02*
X110996560Y-75300000D01*
X116690000Y-67500000D02*
X116690000Y-69606560D01*
%TO.N,Net-(D4-PadA)*%
X152190000Y-121000000D02*
X147000000Y-121000000D01*
%TO.N,Net-(D2-PadA)*%
X153190000Y-96000000D02*
X148270000Y-96000000D01*
%TO.N,Net-(D3-PadA)*%
X134070000Y-104800000D02*
X135270000Y-106000000D01*
X129010000Y-104800000D02*
X134070000Y-104800000D01*
X127810000Y-106000000D02*
X129010000Y-104800000D01*
%TO.N,LED2*%
X121156560Y-105033440D02*
X120190000Y-106000000D01*
X121156560Y-100700000D02*
X121156560Y-105033440D01*
D23*
%TO.N,+5V*%
X145355400Y-56000000D02*
X133500000Y-56000000D01*
X145677700Y-56322300D02*
X145355400Y-56000000D01*
X133500000Y-56000000D02*
X131500000Y-58000000D01*
X145677700Y-87322300D02*
X145677700Y-56322300D01*
X132300000Y-100700000D02*
X145677700Y-87322300D01*
X131316560Y-100700000D02*
X132300000Y-100700000D01*
X131500000Y-62050000D02*
X131500000Y-58000000D01*
X134450000Y-65000000D02*
X131500000Y-62050000D01*
X137500000Y-65000000D02*
X134450000Y-65000000D01*
X137500000Y-64812500D02*
X137500000Y-65000000D01*
X142512500Y-59800000D02*
X137500000Y-64812500D01*
%TO.N,GND*%
X191500000Y-103500000D02*
X196500000Y-103500000D01*
X184500000Y-110500000D02*
X191500000Y-103500000D01*
D22*
%TO.N,DOWN*%
X104126560Y-114150000D02*
X90676560Y-100700000D01*
X143117767Y-114150000D02*
X104126560Y-114150000D01*
X148500000Y-108767767D02*
X143117767Y-114150000D01*
X148500000Y-107500000D02*
X148500000Y-108767767D01*
X147500000Y-104000000D02*
X148500000Y-105000000D01*
X140000000Y-104000000D02*
X147500000Y-104000000D01*
%TO.N,PUSH*%
X105966560Y-113450000D02*
X93216560Y-100700000D01*
X141500000Y-113450000D02*
X105966560Y-113450000D01*
X141500000Y-111500000D02*
X141500000Y-113450000D01*
X146750000Y-106250000D02*
X141500000Y-111500000D01*
X152750000Y-106250000D02*
X146750000Y-106250000D01*
X155000000Y-104000000D02*
X152750000Y-106250000D01*
%TO.N,UP*%
X107056560Y-112000000D02*
X95756560Y-100700000D01*
X140000000Y-112000000D02*
X107056560Y-112000000D01*
%TO.N,MISO*%
X103700000Y-75300000D02*
X103376560Y-75300000D01*
%TO.N,MOSI*%
X142574556Y-88200000D02*
X101036560Y-88200000D01*
X101036560Y-88200000D02*
X88136560Y-75300000D01*
X144677700Y-86096856D02*
X142574556Y-88200000D01*
X144677700Y-74665200D02*
X144677700Y-86096856D01*
X142512500Y-72500000D02*
X144677700Y-74665200D01*
%TO.N,DISPLAY_SELECT*%
X140748820Y-76803680D02*
X117580240Y-76803680D01*
X117580240Y-76803680D02*
X116076560Y-75300000D01*
X142512500Y-75040000D02*
X140748820Y-76803680D01*
%TO.N,D{slash}C*%
X102876560Y-87500000D02*
X90676560Y-75300000D01*
X142284606Y-87500000D02*
X102876560Y-87500000D01*
X143977700Y-85806906D02*
X142284606Y-87500000D01*
X143977700Y-81585200D02*
X143977700Y-85806906D01*
X142512500Y-80120000D02*
X143977700Y-81585200D01*
%TO.N,SD_SELECT*%
X105656560Y-82660000D02*
X98296560Y-75300000D01*
X142512500Y-82660000D02*
X105656560Y-82660000D01*
%TD*%
M02*
