M48
; DRILL file {KiCad 8.0.6} date 2025-08-25T15:56:13+1200
; FORMAT={-:-/ absolute / inch / decimal}
; #@! TF.CreationDate,2025-08-25T15:56:13+12:00
; #@! TF.GenerationSoftware,Kicad,Pcbnew,8.0.6
; #@! TF.FileFunction,Plated,1,2,PTH
FMAT,2
INCH
; #@! TA.AperFunction,Plated,PTH,ViaDrill
T1C0.0236
; #@! TA.AperFunction,Plated,PTH,ComponentDrill
T2C0.0315
; #@! TA.AperFunction,Plated,PTH,ComponentDrill
T3C0.0366
; #@! TA.AperFunction,Plated,PTH,ComponentDrill
T4C0.0394
; #@! TA.AperFunction,Plated,PTH,ComponentDrill
T5C0.0870
; #@! TA.AperFunction,Plated,PTH,ComponentDrill
T6C0.0984
%
G90
G05
T1
X4.5079Y-2.5394
X4.5079Y-2.6457
X5.1181Y-4.0866
X5.1181Y-4.311
X5.4166Y-3.6843
X5.4528Y-3.6319
X5.4921Y-3.5827
X5.5315Y-3.5335
X5.6201Y-3.6811
X5.6325Y-3.6314
X5.6612Y-3.5844
X5.7185Y-3.5335
X5.8465Y-4.1339
X5.8465Y-4.2323
X6.2531Y-3.5267
X6.4567Y-3.7303
X6.811Y-3.5433
X6.811Y-3.7205
T2
X3.3699Y-2.9646
X3.3699Y-3.9646
X3.4699Y-2.9646
X3.4699Y-3.9646
X3.5699Y-2.9646
X3.5699Y-3.9646
X3.6699Y-2.9646
X3.6699Y-3.9646
X3.7699Y-2.9646
X3.7699Y-3.9646
X3.8699Y-2.9646
X3.8699Y-3.9646
X3.9699Y-2.9646
X3.9699Y-3.9646
X4.0699Y-2.9646
X4.0699Y-3.9646
X4.102Y-2.6575
X4.1699Y-2.9646
X4.1699Y-3.9646
X4.2699Y-2.9646
X4.2699Y-3.9646
X4.3699Y-2.9646
X4.3699Y-3.9646
X4.402Y-2.6575
X4.4699Y-2.9646
X4.4699Y-3.9646
X4.5699Y-2.9646
X4.5699Y-3.9646
X4.5941Y-2.6575
X4.6699Y-2.9646
X4.6699Y-3.9646
X4.7319Y-4.1732
X4.7699Y-2.9646
X4.7699Y-3.9646
X4.8699Y-2.9646
X4.8699Y-3.9646
X4.8941Y-2.6575
X4.9699Y-2.9646
X4.9699Y-3.9646
X5.0319Y-4.1732
X5.0698Y-2.9647
X5.0699Y-3.9646
X5.1698Y-2.9647
X5.1699Y-3.9646
X5.1772Y-2.2835
X5.1772Y-2.4429
X5.374Y-2.2835
X5.374Y-2.4429
X5.9917Y-4.7638
X6.0311Y-3.7795
X6.2917Y-4.7638
X6.3311Y-3.7795
X6.6339Y-3.8657
X6.6339Y-4.1657
X6.7004Y-4.8031
X6.8677Y-3.9961
X7.0004Y-4.8031
X7.0055Y-3.7598
X7.1677Y-3.9961
X7.3055Y-3.7598
X8.0783Y-3.4252
X8.3783Y-3.4252
X8.472Y-2.6476
X8.5803Y-3.8484
X8.772Y-2.6476
X8.8803Y-3.8484
X8.9051Y-2.6476
X9.1339Y-3.1768
X9.1339Y-3.4768
X9.2051Y-2.6476
T3
X3.8476Y-2.6772
X3.9476Y-2.6772
X4.8409Y-2.3819
X4.9409Y-2.3819
X5.2256Y-4.1732
X5.3256Y-4.1732
X5.6874Y-4.7638
X5.7374Y-3.7795
X5.7874Y-4.7638
X5.8374Y-3.7795
X6.3173Y-4.2126
X6.4173Y-4.2126
X6.8898Y-4.3701
X6.9898Y-4.3701
X8.1677Y-4.0748
X8.2677Y-4.0748
X8.6311Y-2.3622
X8.6508Y-2.9331
X8.7311Y-2.3622
X8.7508Y-2.9331
T4
X5.6107Y-2.3543
X5.6107Y-2.4543
X5.6107Y-2.5543
X5.6107Y-2.6543
X5.6107Y-2.7543
X5.6107Y-2.8543
X5.6107Y-2.9543
X5.6107Y-3.0543
X5.6107Y-3.1543
X5.6107Y-3.2543
X5.6107Y-3.3543
T5
X7.2638Y-4.3504
X7.4213Y-4.3504
X7.7362Y-4.0748
X7.8937Y-4.0748
X8.1496Y-2.3819
X8.1496Y-2.9331
X8.3071Y-2.3819
X8.3071Y-2.9331
T6
X7.7357Y-2.2543
X7.7357Y-3.4543
M30
