%TF.GenerationSoftware,KiCad,Pcbnew,8.0.6*%
%TF.CreationDate,2025-08-25T15:55:59+12:00*%
%TF.ProjectId,ByteBoyV2,42797465-426f-4795-9632-2e6b69636164,v2*%
%TF.SameCoordinates,Original*%
%TF.FileFunction,Soldermask,Bot*%
%TF.FilePolarity,Negative*%
%FSLAX46Y46*%
G04 Gerber Fmt 4.6, Leading zero omitted, Abs format (unit mm)*
G04 Created by KiCad (PCBNEW 8.0.6) date 2025-08-25 15:55:59*
%MOMM*%
%LPD*%
G01*
G04 APERTURE LIST*
G04 Aperture macros list*
%AMRoundRect*
0 Rectangle with rounded corners*
0 $1 Rounding radius*
0 $2 $3 $4 $5 $6 $7 $8 $9 X,Y pos of 4 corners*
0 Add a 4 corners polygon primitive as box body*
4,1,4,$2,$3,$4,$5,$6,$7,$8,$9,$2,$3,0*
0 Add four circle primitives for the rounded corners*
1,1,$1+$1,$2,$3*
1,1,$1+$1,$4,$5*
1,1,$1+$1,$6,$7*
1,1,$1+$1,$8,$9*
0 Add four rect primitives between the rounded corners*
20,1,$1+$1,$2,$3,$4,$5,0*
20,1,$1+$1,$4,$5,$6,$7,0*
20,1,$1+$1,$6,$7,$8,$9,0*
20,1,$1+$1,$8,$9,$2,$3,0*%
G04 Aperture macros list end*
%ADD10O,1.200000X2.000000*%
%ADD11R,1.200000X2.000000*%
%ADD12C,1.600000*%
%ADD13C,3.524000*%
%ADD14O,1.600000X1.600000*%
%ADD15RoundRect,0.102000X-0.965200X0.965200X-0.965200X-0.965200X0.965200X-0.965200X0.965200X0.965200X0*%
%ADD16C,2.134400*%
%ADD17C,3.404000*%
%ADD18RoundRect,0.102000X-0.700000X-0.700000X0.700000X-0.700000X0.700000X0.700000X-0.700000X0.700000X0*%
%ADD19C,1.604000*%
%ADD20RoundRect,0.102000X0.700000X0.700000X-0.700000X0.700000X-0.700000X-0.700000X0.700000X-0.700000X0*%
G04 APERTURE END LIST*
D10*
%TO.C,U2*%
X85596560Y-75300000D03*
X88136560Y-75300000D03*
X90676560Y-75300000D03*
X93216560Y-75300000D03*
X95756560Y-75300000D03*
X98296560Y-75300000D03*
X100836560Y-75300000D03*
X103376560Y-75300000D03*
X105916560Y-75300000D03*
X108456560Y-75300000D03*
X110996560Y-75300000D03*
X113536560Y-75300000D03*
X116076560Y-75300000D03*
X118616560Y-75300000D03*
X121156560Y-75300000D03*
X123696560Y-75300000D03*
X126236560Y-75300000D03*
X128773840Y-75303680D03*
X131313840Y-75303680D03*
X131316560Y-100700000D03*
X128776560Y-100700000D03*
X126236560Y-100700000D03*
X123696560Y-100700000D03*
X121156560Y-100700000D03*
X118616560Y-100700000D03*
X116076560Y-100700000D03*
X113536560Y-100700000D03*
X110996560Y-100700000D03*
X108456560Y-100700000D03*
X105916560Y-100700000D03*
X103376560Y-100700000D03*
X100836560Y-100700000D03*
X98296560Y-100700000D03*
X95756560Y-100700000D03*
X93216560Y-100700000D03*
X90676560Y-100700000D03*
X88136560Y-100700000D03*
D11*
X85596560Y-100700000D03*
%TD*%
D12*
%TO.C,Joystick*%
X144500000Y-111000000D03*
X150500000Y-105000000D03*
%TD*%
D13*
%TO.C,Select_Button*%
X207000000Y-74500000D03*
X211000000Y-74500000D03*
%TD*%
%TO.C,Start_Button*%
X207000000Y-60500000D03*
X211000000Y-60500000D03*
%TD*%
%TO.C,B_Button*%
X184500000Y-110500000D03*
X188500000Y-110500000D03*
%TD*%
%TO.C,A_Button*%
X196500000Y-103500000D03*
X200500000Y-103500000D03*
%TD*%
D14*
%TO.C,R14*%
X124310000Y-67500000D03*
D12*
X116690000Y-67500000D03*
%TD*%
%TO.C,R13*%
X212810000Y-87000000D03*
D14*
X205190000Y-87000000D03*
%TD*%
D12*
%TO.C,R12*%
X182060000Y-101500000D03*
D14*
X174440000Y-101500000D03*
%TD*%
D12*
%TO.C,R11*%
X222810000Y-67250000D03*
D14*
X215190000Y-67250000D03*
%TD*%
D12*
%TO.C,R10*%
X185560000Y-95500000D03*
D14*
X177940000Y-95500000D03*
%TD*%
D12*
%TO.C,R9*%
X111810000Y-67500000D03*
D14*
X104190000Y-67500000D03*
%TD*%
D12*
%TO.C,R8*%
X159810000Y-121000000D03*
D14*
X152190000Y-121000000D03*
%TD*%
D12*
%TO.C,R7*%
X160810000Y-96000000D03*
D14*
X153190000Y-96000000D03*
%TD*%
D12*
%TO.C,R6*%
X120190000Y-106000000D03*
D14*
X127810000Y-106000000D03*
%TD*%
%TO.C,R5*%
X168500000Y-105810000D03*
D12*
X168500000Y-98190000D03*
%TD*%
%TO.C,R4*%
X232000000Y-80690000D03*
D14*
X232000000Y-88310000D03*
%TD*%
D12*
%TO.C,R3*%
X217940000Y-97750000D03*
D14*
X225560000Y-97750000D03*
%TD*%
D12*
%TO.C,R2*%
X226190000Y-67250000D03*
D14*
X233810000Y-67250000D03*
%TD*%
D12*
%TO.C,R1*%
X170190000Y-122000000D03*
D14*
X177810000Y-122000000D03*
%TD*%
D15*
%TO.C,Display*%
X142512500Y-59800000D03*
D16*
X142512500Y-62340000D03*
X142512500Y-64880000D03*
X142512500Y-67420000D03*
X142512500Y-69960000D03*
X142512500Y-72500000D03*
X142512500Y-75040000D03*
X142512500Y-77580000D03*
X142512500Y-80120000D03*
X142512500Y-82660000D03*
X142512500Y-85200000D03*
D17*
X196487500Y-57260000D03*
X196487500Y-87740000D03*
%TD*%
D18*
%TO.C,D10*%
X207460000Y-103500000D03*
D19*
X210000000Y-103500000D03*
%TD*%
D18*
%TO.C,D9*%
X219730000Y-74500000D03*
D19*
X222270000Y-74500000D03*
%TD*%
D20*
%TO.C,D8*%
X221770000Y-60000000D03*
D19*
X219230000Y-60000000D03*
%TD*%
D18*
%TO.C,D7*%
X175000000Y-111000000D03*
D19*
X177540000Y-111000000D03*
%TD*%
D18*
%TO.C,D6*%
X122960000Y-60500000D03*
D19*
X125500000Y-60500000D03*
%TD*%
D18*
%TO.C,D5*%
X97730000Y-68000000D03*
D19*
X100270000Y-68000000D03*
%TD*%
D18*
%TO.C,D4*%
X144460000Y-121000000D03*
D19*
X147000000Y-121000000D03*
%TD*%
%TO.C,D3*%
X135270000Y-106000000D03*
D18*
X132730000Y-106000000D03*
%TD*%
%TO.C,D2*%
X145730000Y-96000000D03*
D19*
X148270000Y-96000000D03*
%TD*%
%TO.C,D1*%
X163000000Y-107000000D03*
D18*
X160460000Y-107000000D03*
%TD*%
D12*
%TO.C,C2*%
X131500000Y-62050000D03*
X136500000Y-62050000D03*
%TD*%
%TO.C,C1*%
X131500000Y-58000000D03*
X136500000Y-58000000D03*
%TD*%
M02*
